<svg width="282.575px" height="112.16000366210938px" xmlns="http://www.w3.org/2000/svg" viewBox="108.7125 18.919998168945312 282.575 112.16000366210938" style="background: rgba(0, 0, 0, 0);" preserveAspectRatio="xMidYMid"><defs><linearGradient id="editing-sticker-gradient" x1="0.5" y1="0.2" x2="0.5" y2="0.8"><stop offset="0" stop-color="#fd9"></stop><stop offset="1" stop-color="#9df"></stop></linearGradient><filter id="editing-sticker" x="-100%" y="-100%" width="300%" height="300%"><feMorphology operator="erode" radius="1" in="SourceAlpha" result="alpha-erode"></feMorphology><feConvolveMatrix order="3,3" divisor="1" kernelMatrix="0 1 0 1 1 1 0 1 0" in="alpha-erode" result="alpha-round"></feConvolveMatrix><feMorphology operator="dilate" radius="3.5" in="alpha-round" result="dilate-shadow"></feMorphology><feGaussianBlur in="dilate-shadow" stdDeviation="1.5" result="shadow"></feGaussianBlur><feFlood flood-color="#fff" result="flood-sticker"></feFlood><feComposite operator="in" in="flood-sticker" in2="alpha-round" result="comp-sticker"></feComposite><feMorphology operator="dilate" radius="3" in="comp-sticker" result="morph-sticker"></feMorphology><feConvolveMatrix order="3,3" divisor="1" kernelMatrix="0 1 0 1 1 1 0 1 0" in="morph-sticker" result="sticker"></feConvolveMatrix><feMerge><feMergeNode in="shadow"></feMergeNode><feMergeNode in="sticker"></feMergeNode><feMergeNode in="SourceGraphic"></feMergeNode></feMerge></filter></defs><g filter="url(#editing-sticker)"><g transform="translate(153.2550127506256, 101.97000503540039)"><path d="M31.26-12.01L31.26-12.01L31.26-12.01Q32.77-10.90 32.77-8.55L32.77-8.55L32.77-8.55Q32.77-6.21 31.76-4.55L31.76-4.55L31.76-4.55Q30.74-2.90 28.77-1.62L28.77-1.62L28.77-1.62Q24.53 1.10 17.14 1.10L17.14 1.10L17.14 1.10Q9.74 1.10 5.71-2.76L5.71-2.76L5.71-2.76Q1.68-6.61 1.68-13.46L1.68-13.46L1.68-13.46Q1.68-23.14 6.73-30.51L6.73-30.51L6.73-30.51Q10.56-35.96 17.40-38.28L17.40-38.28L17.40-38.28Q20.94-39.44 24.42-39.44L24.42-39.44L24.42-39.44Q27.90-39.44 30.04-38.98L30.04-38.98L30.04-38.98Q32.19-38.51 33.81-37.58L33.81-37.58L33.81-37.58Q37.35-35.55 37.35-32.31L37.35-32.31L37.35-32.31Q37.35-29.35 34.57-27.14L34.57-27.14L34.57-27.14Q32.02-25.17 29.93-25.17L29.93-25.17L29.93-25.17Q27.84-25.17 26.97-25.46L26.97-25.46L26.97-25.46Q27.20-27.55 27.20-28.91L27.20-28.91L27.20-28.91Q27.20-30.28 27.14-31.26L27.14-31.26L27.14-31.26Q27.09-32.25 26.80-33.18L26.80-33.18L26.80-33.18Q26.22-35.32 24.45-35.32L24.45-35.32L24.45-35.32Q22.68-35.32 20.91-33.67L20.91-33.67L20.91-33.67Q19.14-32.02 17.63-29.23L17.63-29.23L17.63-29.23Q14.21-22.91 14.21-15.43L14.21-15.43L14.21-15.43Q14.21-11.83 16.24-9.77L16.24-9.77L16.24-9.77Q18.27-7.71 22.62-7.71L22.62-7.71L22.62-7.71Q25.87-7.71 28.94-9.86L28.94-9.86L28.94-9.86Q30.28-10.79 31.26-12.01ZM66.76-6.44L66.76-6.44L66.76-6.44Q66.76-3.89 69.37-3.13L69.37-3.13L69.37-3.13Q68.73-0.99 66.24 0.17L66.24 0.17L66.24 0.17Q64.15 1.16 61.86 1.16L61.86 1.16L61.86 1.16Q59.57 1.16 58.38 0.55L58.38 0.55L58.38 0.55Q57.19-0.06 56.55-1.04L56.55-1.04L56.55-1.04Q55.51-2.55 55.51-5.39L55.51-5.39L55.51-5.39Q55.51-7.08 56.43-11.72L56.43-11.72L57.25-16.12L57.25-16.12Q58.23-21.17 58.23-23.03L58.23-23.03L58.23-23.03Q58.23-26.27 56.43-26.27L56.43-26.27L56.43-26.27Q54.17-26.27 52.72-22.97L52.72-22.97L52.72-22.97Q52.14-21.69 51.74-19.78L51.74-19.78L47.79 0L36.13 1.16L44.31-40.60L55.97-41.76L55.51-39.44L55.51-39.44Q53.88-30.51 52.49-27.49L52.49-27.49L52.49-27.49Q55.74-30.74 61.71-30.74L61.71-30.74L61.71-30.74Q68.03-30.74 69.19-26.56L69.19-26.56L69.19-26.56Q69.60-25.23 69.60-24.07L69.60-24.07L69.60-24.07Q69.60-22.91 69.51-22.01L69.51-22.01L69.51-22.01Q69.43-21.11 69.14-19.49L69.14-19.49L68.38-15.31L67.05-8.76L67.05-8.76Q66.76-7.42 66.76-6.44ZM87.99-3.19L87.99-3.19L87.99-3.19Q86.19 1.16 80.45 1.16L80.45 1.16L80.45 1.16Q77.49 1.16 75.63-0.87L75.63-0.87L75.63-0.87Q74.07-2.67 74.07-4.47L74.07-4.47L74.07-4.47Q74.07-9.16 76.21-18.33L76.21-18.33L78.36-29.58L90.13-30.74L86.59-12.41L86.59-12.41Q85.61-8.12 85.61-6.61L85.61-6.61L85.61-6.61Q85.61-3.31 87.99-3.19ZM79.40-37.64L79.40-37.64L79.40-37.64Q79.40-39.90 81.29-41.12L81.29-41.12L81.29-41.12Q83.17-42.34 85.90-42.34L85.90-42.34L85.90-42.34Q88.62-42.34 90.28-41.12L90.28-41.12L90.28-41.12Q91.93-39.90 91.93-37.64L91.93-37.64L91.93-37.64Q91.93-35.38 90.10-34.22L90.10-34.22L90.10-34.22Q88.28-33.06 85.55-33.06L85.55-33.06L85.55-33.06Q82.82-33.06 81.11-34.22L81.11-34.22L81.11-34.22Q79.40-35.38 79.40-37.64ZM111.07-16.30L111.07-16.30L111.07-16.30Q113.16-20.01 113.16-23.78L113.16-23.78L113.16-23.78Q113.16-26.27 111.36-26.27L111.36-26.27L111.36-26.27Q109.97-26.27 108.52-23.90L108.52-23.90L108.52-23.90Q107.01-21.52 106.55-18.44L106.55-18.44L103.53 0L91.52 1.16L97.44-29.58L107.01-30.74L105.97-24.88L105.97-24.88Q108.81-30.74 115.19-30.74L115.19-30.74L115.19-30.74Q118.55-30.74 120.38-29L120.38-29L120.38-29Q122.21-27.26 122.21-23.69L122.21-23.69L122.21-23.69Q122.21-20.13 119.86-17.86L119.86-17.86L119.86-17.86Q117.51-15.60 113.51-15.60L113.51-15.60L113.51-15.60Q111.77-15.60 111.07-16.30ZM125.66-1.74L125.66-1.74L125.66-1.74Q124.29-3.25 123.69-5.63L123.69-5.63L123.69-5.63Q123.08-8.00 123.08-11.89L123.08-11.89L123.08-11.89Q123.08-15.78 124.41-19.31L124.41-19.31L124.41-19.31Q125.74-22.85 128.18-25.40L128.18-25.40L128.18-25.40Q133.17-30.74 141.40-30.74L141.40-30.74L141.40-30.74Q144.36-30.74 146.51-29.75L146.51-29.75L156.43-30.74L152.13-8.12L152.13-8.12Q151.96-7.42 151.96-6.15L151.96-6.15L151.96-6.15Q151.96-4.87 152.74-4.06L152.74-4.06L152.74-4.06Q153.53-3.25 154.69-3.13L154.69-3.13L154.69-3.13Q154.11-1.16 151.99 0L151.99 0L151.99 0Q149.87 1.16 147.49 1.16L147.49 1.16L147.49 1.16Q145.12 1.16 143.52 0.26L143.52 0.26L143.52 0.26Q141.93-0.64 141.46-2.15L141.46-2.15L141.46-2.15Q140.53-0.70 138.56 0.23L138.56 0.23L138.56 0.23Q136.59 1.16 133.95 1.16L133.95 1.16L133.95 1.16Q131.31 1.16 129.17 0.46L129.17 0.46L129.17 0.46Q127.02-0.23 125.66-1.74ZM137.90-25.29L137.90-25.29L137.90-25.29Q137.23-24.24 136.65-22.48L136.65-22.48L136.65-22.48Q136.07-20.71 135.11-15.98L135.11-15.98L135.11-15.98Q134.15-11.25 134.15-7.89L134.15-7.89L134.15-7.89Q134.15-4.52 134.68-3.54L134.68-3.54L134.68-3.54Q135.20-2.55 136.13-2.55L136.13-2.55L136.13-2.55Q137.98-2.55 139.34-4.32L139.34-4.32L139.34-4.32Q140.71-6.09 141.23-9.22L141.23-9.22L144.30-26.22L144.30-26.22Q143.09-27.26 141.67-27.26L141.67-27.26L141.67-27.26Q140.24-27.26 139.40-26.80L139.40-26.80L139.40-26.80Q138.56-26.33 137.90-25.29ZM163.44-24.24L163.44-24.24L163.44-24.24Q165.42-27.03 168.40-28.88L168.40-28.88L168.40-28.88Q171.39-30.74 175.04-30.74L175.04-30.74L175.04-30.74Q178.70-30.74 180.44-29.58L180.44-29.58L191.81-30.74L187.86-8.47L187.86-8.47Q185.83 2.90 181.54 7.37L181.54 7.37L181.54 7.37Q177.42 11.60 169.42 11.60L169.42 11.60L169.42 11.60Q163.33 11.60 159.85 9.69L159.85 9.69L159.85 9.69Q156.37 7.77 156.37 4.58L156.37 4.58L156.37 4.58Q156.37 2.20 158.17 0.84L158.17 0.84L158.17 0.84Q159.96-0.52 162.75-0.52L162.75-0.52L162.75-0.52Q165.18-0.52 167.04 0.58L167.04 0.58L167.04 0.58Q168.14 1.16 168.66 1.97L168.66 1.97L168.66 1.97Q167.33 3.13 167.33 5.05L167.33 5.05L167.33 5.05Q167.33 7.54 169.65 7.54L169.65 7.54L169.65 7.54Q173.54 7.54 175.74-1.62L175.74-1.62L175.74-1.62Q176.38-4.12 176.90-6.61L176.90-6.61L176.90-6.61Q174.29-3.42 168.37-3.42L168.37-3.42L168.37-3.42Q164.26-3.42 161.88-5.39L161.88-5.39L161.88-5.39Q159.50-7.37 159.50-12.01L159.50-12.01L159.50-12.01Q159.50-14.91 160.49-18.18L160.49-18.18L160.49-18.18Q161.47-21.46 163.44-24.24ZM170.98-11.83L170.98-11.83L170.98-11.83Q170.98-7.89 173.01-7.89L173.01-7.89L173.01-7.89Q174.41-7.89 175.74-9.40L175.74-9.40L175.74-9.40Q176.78-10.61 177.19-12.41L177.19-12.41L180.15-27.32L180.15-27.32Q179.86-27.38 179.57-27.49L179.57-27.49L179.57-27.49Q178.99-27.72 178.23-27.72L178.23-27.72L178.23-27.72Q174.70-27.72 172.61-21.92L172.61-21.92L172.61-21.92Q170.98-17.40 170.98-11.83Z" fill="url(#editing-sticker-gradient)" stroke="#000" stroke-width="3"></path></g></g><style>text {
  font-size: 64px;
  font-family: Arial Black;
  dominant-baseline: central;
  text-anchor: middle;
}</style></svg>